<svg id="Layer_1" enable-background="new 0 0 512 512" height="512" viewBox="0 0 512 512" width="512" xmlns="http://www.w3.org/2000/svg"><g><g clip-rule="evenodd" fill-rule="evenodd"><path d="m92.746 192.999c-1.972-38.186 25.215-78.55 67.091-73.609 47.216 5.572 79.615-9.045 96.164-31.226v-38.164-40c-135.862 0-246 110.138-246 246 0 18.824 2.114 37.154 6.118 54.765l1.165-.385c44.105-21.04 78.538-57.818 75.462-117.381z" fill="#e0ef9b"/><path d="m159.836 119.39c-41.876-4.941-69.063 35.423-67.091 73.609 3.076 59.563-31.357 96.341-75.462 117.382l-1.165.385c13.312 58.554 47.512 109.167 94.351 143.59l.855-.895c39.026-42.204 109.344-37.446 144.676-59.515v-57.946-160-87.836c-16.549 22.182-48.948 36.798-96.164 31.226z" fill="#99ebfa"/><path d="m256 393.946c-35.332 22.069-105.651 17.311-144.676 59.515l-.855.895c40.755 29.951 91.077 47.644 145.531 47.644v-40z" fill="#e0ef9b"/><path d="m462 256c0 113.771-92.229 206-206 206v40c135.862 0 246-110.138 246-246s-110.138-246-246-246v40c113.771 0 206 92.23 206 206z" fill="#a7bdcd"/><path d="m256 462c113.771 0 206-92.229 206-206s-92.229-206-206-206v38.164 87.837c44.182 0 80 35.818 80 80s-35.817 80-79.999 80v57.945 68.054z" fill="#ffcd69"/><path d="m256 336c44.182 0 80-35.817 80-80 0-44.182-35.817-80-79.999-80v160z" fill="#ff7d97"/></g><g><path d="m256 0c-141.159 0-256 114.841-256 256s114.841 256 256 256 256-114.841 256-256-114.841-256-256-256zm10 186.719c34.2 4.843 60 33.927 60 69.281 0 35.434-25.776 64.454-60 69.28zm-20 305.054c-44.095-1.848-85.095-15.849-119.74-38.738 21.285-17.883 50.218-24.704 78.308-31.317 14.796-3.482 29.014-6.834 41.433-11.74v81.795zm20-146.346c20.717-2.29 39.865-11.6 54.541-26.701 16.418-16.894 25.459-39.169 25.459-62.726 0-23.461-8.979-45.673-25.283-62.543-14.686-15.197-33.911-24.577-54.717-26.879v-106.312c103.092 5.288 186 91.879 186 195.734 0 104.103-82.804 190.451-186 195.73zm-238.182-29.134c27.624-14.368 47.985-33.306 60.561-56.379 2.644-4.85.854-10.924-3.994-13.566-4.847-2.642-10.923-.854-13.566 3.994-9.912 18.185-25.843 33.486-47.42 45.607-2.225-12.991-3.399-26.334-3.399-39.949 0-126.78 100.491-230.513 226-235.773v64.453c-16.858 20.175-47.593 29.196-84.992 24.779-39.442-4.639-66.011 24.212-74.841 54.883-1.528 5.308 1.535 10.849 6.843 12.376.925.267 1.855.394 2.771.394 4.344-.001 8.343-2.854 9.604-7.236 6.493-22.548 25.482-43.841 53.278-40.553 35.034 4.132 65.57-2.248 87.336-17.691v276.465c-12.197 6.188-28.676 10.073-46.015 14.154-30.569 7.195-64.922 15.293-90.327 38.764-39.398-31.23-68.625-74.753-81.839-124.722zm238.182 175.48v-20.015c54.529-2.49 105.396-25.115 143.871-64.168 40.065-40.667 62.129-94.503 62.129-151.59 0-56.837-21.899-110.505-61.663-151.116-38.491-39.311-89.566-62.144-144.337-64.653v-20.004c125.509 5.26 226 108.993 226 235.773s-100.491 230.513-226 235.773z"/><path d="m92.423 201.983h-.007c-5.522 0-9.996 4.478-9.996 10s4.48 10 10.003 10 10-4.478 10-10-4.478-10-10-10z"/></g></g></svg>